<svg width="1200" height="800" viewBox="0 0 1200 800" xmlns="http://www.w3.org/2000/svg" role="img" aria-labelledby="projectTitle">
  <title id="projectTitle">Project control and technical planning illustration</title>
  <defs>
    <linearGradient id="bg" x1="0" x2="1" y1="0" y2="1">
      <stop offset="0%" stop-color="#f4f5f8" />
      <stop offset="100%" stop-color="#d5d7de" />
    </linearGradient>
  </defs>
  <rect width="1200" height="800" fill="url(#bg)" />
  <rect x="180" y="220" width="300" height="340" rx="12" fill="#fff" stroke="#b7b8c1" stroke-width="4" />
  <rect x="430" y="180" width="320" height="420" rx="12" fill="#fff" stroke="#b7b8c1" stroke-width="4" />
  <rect x="760" y="260" width="250" height="300" rx="12" fill="#fff" stroke="#b7b8c1" stroke-width="4" />
  <path d="M 210 340 L 1050 340" stroke="#1925aa" stroke-width="10" stroke-linecap="round" opacity="0.8" />
  <g fill="#0d1355" opacity="0.9">
    <rect x="230" y="260" width="140" height="28" rx="4" />
    <rect x="250" y="310" width="100" height="12" rx="3" />
    <rect x="250" y="340" width="180" height="14" rx="3" />
    <rect x="250" y="370" width="100" height="12" rx="3" />
    <rect x="450" y="240" width="160" height="28" rx="4" />
    <rect x="470" y="300" width="130" height="14" rx="3" />
    <rect x="470" y="340" width="160" height="14" rx="3" />
    <rect x="470" y="380" width="100" height="14" rx="3" />
    <rect x="780" y="295" width="120" height="26" rx="4" />
    <rect x="800" y="340" width="160" height="12" rx="3" />
    <rect x="800" y="370" width="120" height="12" rx="3" />
    <rect x="800" y="400" width="90" height="12" rx="3" />
  </g>
  <circle cx="500" cy="600" r="64" fill="#1925aa" opacity="0.12" />
  <circle cx="650" cy="580" r="38" fill="#1925aa" opacity="0.16" />
  <circle cx="760" cy="540" r="56" fill="#0d1355" opacity="0.08" />
</svg>
